<?xml version="1.0" encoding="iso-8859-1"?>
<!-- Generator: Adobe Illustrator 18.0.0, SVG Export Plug-In . SVG Version: 6.00 Build 0)  -->
<!DOCTYPE svg PUBLIC "-//W3C//DTD SVG 1.1//EN" "http://www.w3.org/Graphics/SVG/1.1/DTD/svg11.dtd">
<svg xmlns="http://www.w3.org/2000/svg" xmlns:xlink="http://www.w3.org/1999/xlink" version="1.1" id="Capa_1" x="0px" y="0px" viewBox="0 0 382.117 382.117" style="enable-background:new 0 0 382.117 382.117;" xml:space="preserve" width="512px" height="512px">
<path d="M336.764,45.945H45.354C20.346,45.945,0,65.484,0,89.5v203.117c0,24.016,20.346,43.555,45.354,43.555h291.41  c25.008,0,45.353-19.539,45.353-43.555V89.5C382.117,65.484,361.772,45.945,336.764,45.945z M336.764,297.72H45.354  c-3.676,0-6.9-2.384-6.9-5.103V116.359l131.797,111.27c2.702,2.282,6.138,3.538,9.676,3.538l22.259,0.001  c3.536,0,6.974-1.257,9.677-3.539l131.803-111.274v176.264C343.664,295.336,340.439,297.72,336.764,297.72z M191.059,192.987  L62.87,84.397h256.378L191.059,192.987z" fill="#fc8ba0"/>
<g>
</g>
<g>
</g>
<g>
</g>
<g>
</g>
<g>
</g>
<g>
</g>
<g>
</g>
<g>
</g>
<g>
</g>
<g>
</g>
<g>
</g>
<g>
</g>
<g>
</g>
<g>
</g>
<g>
</g>
</svg>
